# xmcd
#
# Track frame offsets:
#	150
#	20928
#	38630
#	56644
#	77031
#	94906
#	111731
#	132059
#	148401
#	165170
#	183247
#	200885
#	221566
#
# Disc length: 3319 seconds
#
# Revision: 1
# Processed by: cddbd v1.5.1PL0 Copyright (c) Steve Scherf et al.
# Submitted via: audiograbber 1.83.01
#
DISCID=c30cf50d
DTITLE=Simone - Schwerelos
DYEAR=2005
DGENRE=Pop
TTITLE0=Nachts geht die Sehnsucht durch die Stadt
TTITLE1=Ich lass Dich nicht gehn
TTITLE2=Die Nacht vor Dir
TTITLE3=Jenseits der Träume
TTITLE4=Es wär so leicht
TTITLE5=Schwerelos
TTITLE6=Wo sind die Männer
TTITLE7=Ich hab Dich immer schon geliebt
TTITLE8=Noch immer nicht
TTITLE9=Samstag Nacht
TTITLE10=Da bleib ich lieber frei
TTITLE11=Spuren im Sand
TTITLE12=Hit-Medley
EXTD=
EXTT0=
EXTT1=
EXTT2=
EXTT3=
EXTT4=
EXTT5=
EXTT6=
EXTT7=
EXTT8=
EXTT9=
EXTT10=
EXTT11=
EXTT12=
PLAYORDER=
